<svg xmlns="http://www.w3.org/2000/svg" id="Calque_1" viewBox="0 0 370.11 241.38"><g id="Groupe_516"><path id="Trac&#xE9;_852" d="M149.44,148l-19.03,47.36h-41.66L159.62,28.24h51.51l71.85,167.12h-43.64l-20.02-47.36h-69.88ZM212.76,124.94l-17.39-41.16c-4.26-10.17-7.88-21.58-11.15-31.25h-.66c-3.28,9.67-6.89,21.32-10.5,31.25l-17.06,41.16h56.76Z" fill="#035b9f"></path><rect id="Rectangle_340" x="40" y="108.51" width="283.8" height="40.51" fill="#fff"></rect><rect id="Rectangle_341" x="40" y="28.24" width="347.69" height="167.12" fill="none"></rect></g><g><path d="M74.05,140.16l-2.35-6.54h-9.01l-2.3,6.54h-4.06l8.81-23.65h4.19l8.81,23.65h-4.09ZM70.68,130.3l-2.21-6.41c-.16-.43-.38-1.11-.67-2.03s-.48-1.6-.59-2.03c-.29,1.32-.71,2.77-1.27,4.33l-2.13,6.14h6.87Z" fill="#035b9f"></path></g><g><path d="M87.74,140.16h-3.85v-20.26h-6.93v-3.3h17.71v3.3h-6.93v20.26Z" fill="#035b9f"></path></g><g><path d="M109.98,140.16h-13.32v-23.56h13.33v3.25h-9.47v6.41h8.88v3.22h-8.88v7.4h9.47v3.28h-.01Z" fill="#035b9f"></path></g><g><path d="M113.42,140.16v-23.56h3.85v20.25h9.97v3.3h-13.82Z" fill="#035b9f"></path></g><g><path d="M129.69,140.16v-23.56h3.85v23.56h-3.85Z" fill="#035b9f"></path><path d="M151.44,140.16h-13.33v-23.56h13.33v3.25h-9.47v6.41h8.88v3.22h-8.88v7.4h9.47v3.28Z" fill="#035b9f"></path><path d="M158.73,130.75v9.41h-3.85v-23.56h6.65c3.04,0,5.29.57,6.75,1.71s2.19,2.86,2.19,5.16c0,2.93-1.53,5.02-4.58,6.27l6.65,10.43h-4.38l-5.64-9.41h-3.79ZM158.73,127.56h2.67c1.79,0,3.09-.33,3.9-1s1.21-1.65,1.21-2.96-.44-2.29-1.31-2.87-2.18-.87-3.93-.87h-2.55v7.7h0Z" fill="#035b9f"></path></g><g><path d="M187.91,133.76c0,2.09-.76,3.74-2.27,4.93-1.51,1.19-3.6,1.79-6.27,1.79s-4.84-.41-6.54-1.24v-3.64c1.07.51,2.22.9,3.42,1.19,1.21.29,2.33.43,3.38.43,1.53,0,2.65-.29,3.38-.87.72-.58,1.09-1.36,1.09-2.34,0-.88-.33-1.63-1-2.24s-2.04-1.34-4.12-2.18c-2.15-.87-3.66-1.86-4.54-2.98s-1.32-2.46-1.32-4.03c0-1.97.7-3.51,2.09-4.64s3.27-1.69,5.62-1.69,4.5.5,6.74,1.48l-1.22,3.14c-2.09-.88-3.96-1.32-5.61-1.32-1.25,0-2.19.27-2.84.81-.64.54-.97,1.26-.97,2.15,0,.61.13,1.14.39,1.57s.68.85,1.27,1.23,1.65.9,3.19,1.53c1.73.72,3,1.39,3.8,2.01s1.4,1.33,1.77,2.11.56,1.74.56,2.8Z" fill="#035b9f"></path><path d="M216.96,128.15c0,3.89-1.08,6.86-3.24,8.92s-5.27,3.09-9.33,3.09h-6.59v-23.56h7.28c3.75,0,6.67,1.01,8.75,3.03s3.13,4.86,3.13,8.52ZM212.9,128.28c0-5.64-2.64-8.46-7.91-8.46h-3.33v17.1h2.74c5.67,0,8.5-2.88,8.5-8.64Z" fill="#035b9f"></path></g><g><path d="M238.87,116.6v15.24c0,1.74-.37,3.26-1.12,4.57-.75,1.3-1.83,2.31-3.24,3.01s-3.1,1.06-5.07,1.06c-2.92,0-5.19-.77-6.82-2.32s-2.43-3.67-2.43-6.38v-15.18h3.87v14.91c0,1.94.45,3.38,1.35,4.3s2.29,1.39,4.16,1.39c3.63,0,5.45-1.91,5.45-5.72v-14.88h3.85Z" fill="#035b9f"></path></g><g><path d="M250.2,116.6h6.99c3.24,0,5.59.47,7.03,1.42s2.17,2.44,2.17,4.48c0,1.38-.35,2.52-1.06,3.43s-1.73,1.49-3.06,1.72v.16c1.65.31,2.87.93,3.65,1.84.78.92,1.17,2.16,1.17,3.73,0,2.12-.74,3.77-2.22,4.97s-3.53,1.8-6.16,1.8h-8.51v-23.55h0ZM254.05,126.33h3.71c1.61,0,2.79-.25,3.53-.77.74-.51,1.11-1.38,1.11-2.6,0-1.11-.4-1.91-1.2-2.4-.8-.49-2.07-.74-3.81-.74h-3.34v6.51h0ZM254.05,129.46v7.46h4.09c1.61,0,2.83-.31,3.65-.93s1.23-1.59,1.23-2.92c0-1.22-.42-2.13-1.26-2.72s-2.11-.89-3.82-.89h-3.89Z" fill="#035b9f"></path><path d="M291.25,128.35c0,3.83-.96,6.82-2.88,8.94-1.92,2.13-4.63,3.19-8.15,3.19s-6.29-1.06-8.19-3.17c-1.91-2.11-2.86-5.11-2.86-9s.96-6.87,2.88-8.96c1.92-2.08,4.65-3.12,8.21-3.12s6.21,1.06,8.12,3.17,2.87,5.1,2.87,8.95ZM273.27,128.35c0,2.9.59,5.1,1.76,6.6s2.91,2.25,5.2,2.25,4.01-.74,5.18-2.22c1.17-1.48,1.75-3.69,1.75-6.62s-.58-5.08-1.73-6.57c-1.16-1.49-2.88-2.24-5.17-2.24s-4.05.75-5.23,2.24c-1.17,1.48-1.76,3.67-1.76,6.56Z" fill="#035b9f"></path><path d="M294.66,140.16v-23.56h3.85v23.56h-3.85Z" fill="#035b9f"></path></g><g><path d="M316.67,133.76c0,2.09-.76,3.74-2.27,4.93-1.51,1.19-3.6,1.79-6.27,1.79s-4.84-.41-6.54-1.24v-3.64c1.07.51,2.22.9,3.42,1.19,1.21.29,2.33.43,3.38.43,1.53,0,2.65-.29,3.38-.87.72-.58,1.09-1.36,1.09-2.34,0-.88-.33-1.63-1-2.24s-2.04-1.34-4.12-2.18c-2.15-.87-3.66-1.86-4.54-2.98s-1.32-2.46-1.32-4.03c0-1.97.7-3.51,2.09-4.64s3.27-1.69,5.62-1.69,4.5.5,6.74,1.48l-1.22,3.14c-2.09-.88-3.96-1.32-5.61-1.32-1.25,0-2.19.27-2.84.81-.64.54-.97,1.26-.97,2.15,0,.61.13,1.14.39,1.57s.68.85,1.27,1.23,1.65.9,3.19,1.53c1.73.72,3,1.39,3.8,2.01s1.4,1.33,1.77,2.11.56,1.74.56,2.8Z" fill="#035b9f"></path></g></svg>